<?xml version="1.0" standalone="no"?>
<!DOCTYPE svg PUBLIC "-//W3C//DTD SVG 20010904//EN"
 "http://www.w3.org/TR/2001/REC-SVG-20010904/DTD/svg10.dtd">
<svg version="1.0" xmlns="http://www.w3.org/2000/svg"
 width="600.000000pt" height="510.000000pt" viewBox="0 0 600.000000 510.000000"
 preserveAspectRatio="xMidYMid meet">

<g transform="translate(0.000000,510.000000) scale(0.100000,-0.100000)"
fill="#000000" stroke="none">
<path d="M2283 5090 c-71 -13 -202 -62 -277 -104 -307 -172 -522 -472 -567
-790 l-12 -83 -96 -6 c-282 -18 -544 -171 -700 -412 -68 -105 -102 -193 -135
-356 -4 -20 -26 -38 -88 -74 -57 -34 -115 -81 -184 -149 -86 -86 -107 -114
-142 -186 -22 -47 -49 -121 -59 -165 -24 -106 -24 -295 0 -385 56 -210 228
-416 426 -511 116 -55 197 -70 366 -68 l150 3 31 -100 c57 -183 140 -327 266
-460 215 -228 509 -354 822 -354 175 0 301 31 501 123 61 27 115 50 120 50 6
-1 58 -30 117 -66 133 -80 230 -121 376 -158 360 -91 763 -32 1069 156 337
208 559 527 641 923 l26 123 80 -6 c154 -12 320 20 462 90 238 116 409 322
490 590 24 80 27 105 27 235 0 117 -4 160 -21 223 -88 321 -342 576 -667 670
-55 15 -101 20 -210 20 -77 1 -161 -2 -187 -6 l-46 -8 -38 68 c-135 245 -334
410 -599 499 -69 23 -101 27 -235 31 -171 6 -258 -4 -375 -41 l-76 -24 -40 81
c-130 259 -309 438 -552 552 -149 70 -185 77 -412 80 -110 2 -223 0 -252 -5z
m472 -104 c146 -39 306 -130 423 -241 95 -89 160 -179 223 -306 52 -106 91
-159 117 -159 8 0 57 13 108 30 174 55 401 64 549 21 258 -77 445 -235 587
-500 42 -77 60 -85 158 -70 45 6 135 9 203 7 103 -4 135 -9 209 -35 125 -44
219 -104 324 -208 106 -105 168 -202 211 -333 26 -80 28 -99 28 -237 0 -168
-15 -236 -81 -369 -87 -173 -254 -329 -432 -401 -109 -44 -211 -58 -379 -52
-84 3 -153 1 -153 -3 0 -5 -11 -69 -25 -143 -55 -299 -170 -524 -369 -722
-182 -181 -394 -294 -659 -352 -61 -13 -126 -18 -252 -18 -188 0 -272 13 -430
67 -115 39 -165 64 -296 149 l-106 69 -134 -64 c-171 -81 -269 -112 -397 -126
-303 -32 -612 79 -833 299 -127 128 -210 271 -270 466 -17 55 -39 111 -48 124
-20 26 -22 26 -191 16 -155 -9 -238 6 -360 66 -69 35 -102 60 -180 138 -108
107 -146 171 -181 296 -18 67 -21 97 -17 204 6 144 34 251 90 336 57 89 186
205 289 260 l93 50 23 108 c12 59 33 131 45 160 95 223 274 388 503 463 66 22
104 28 222 32 162 5 148 -4 158 107 9 105 41 227 79 309 122 265 381 488 649
561 71 19 432 20 502 1z"/>
<path d="M955 1200 c-260 -86 -338 -408 -145 -600 147 -148 375 -141 519 15
127 138 127 340 1 478 -102 111 -242 151 -375 107z m223 -106 c166 -82 202
-295 72 -424 -102 -103 -255 -108 -360 -13 -62 56 -90 116 -92 196 -1 74 17
120 69 177 80 90 207 116 311 64z"/>
<path d="M444 635 c-173 -87 -161 -335 19 -413 70 -30 178 -8 237 50 55 53 72
98 68 179 -6 122 -85 201 -207 207 -55 3 -74 -1 -117 -23z m162 -84 c100 -46
95 -183 -10 -235 -50 -25 -99 -15 -144 30 -33 33 -34 37 -30 94 5 68 30 104
82 119 45 13 57 12 102 -8z"/>
<path d="M131 288 c-73 -50 -98 -124 -66 -192 43 -91 153 -120 230 -62 65 50
82 128 44 195 -29 51 -65 74 -123 79 -41 3 -57 -1 -85 -20z m100 -79 c53 -28
34 -108 -25 -109 -52 0 -76 75 -34 104 27 19 33 19 59 5z"/>
</g>
</svg>
