<?xml version="1.0" standalone="no"?>
<!DOCTYPE svg PUBLIC "-//W3C//DTD SVG 20010904//EN"
 "http://www.w3.org/TR/2001/REC-SVG-20010904/DTD/svg10.dtd">
<svg version="1.0" xmlns="http://www.w3.org/2000/svg"
 width="850.000000pt" height="399.000000pt" viewBox="0 0 850.000000 399.000000"
 preserveAspectRatio="xMidYMid meet">

<g transform="translate(0.000000,399.000000) scale(0.100000,-0.100000)"
fill="#000000" stroke="none">
<path d="M3635 3982 c-227 -10 -552 -75 -728 -147 -124 -50 -171 -76 -243
-134 -62 -49 -203 -231 -211 -273 -5 -24 -10 -29 -27 -23 -163 48 -170 48
-376 52 -198 4 -210 3 -347 -26 -226 -48 -326 -83 -429 -149 -115 -75 -155
-110 -202 -182 -37 -55 -50 -105 -56 -210 -1 -12 -22 -16 -101 -22 -221 -15
-320 -31 -443 -69 -157 -50 -244 -96 -307 -164 -57 -59 -109 -157 -102 -186 3
-11 -4 -45 -16 -77 -43 -121 -29 -371 30 -519 21 -53 44 -85 106 -150 l79 -82
-30 -38 c-26 -34 -57 -117 -54 -147 2 -35 2 -236 -1 -266 -2 -19 2 -51 9 -70
7 -19 20 -61 29 -92 28 -99 99 -211 184 -289 221 -205 496 -322 906 -385 157
-24 554 -25 727 -1 189 26 459 107 551 164 l38 24 52 -24 c206 -97 550 -135
777 -86 52 11 106 22 120 24 21 4 32 -4 62 -44 40 -54 174 -148 257 -180 344
-136 686 -194 1146 -194 192 0 250 3 350 21 109 20 401 110 553 171 66 26 176
100 220 148 l32 35 68 -7 c191 -21 433 2 702 65 96 22 207 47 245 55 250 50
577 178 765 301 430 280 547 441 495 682 -14 65 -25 90 -57 129 -51 61 -103
96 -184 123 -66 22 -83 40 -39 40 63 0 198 98 235 170 47 93 63 154 66 260 3
132 -12 201 -65 285 -23 35 -41 67 -41 70 0 35 -196 205 -303 261 -122 65
-233 113 -322 139 -86 25 -360 65 -445 65 -84 0 -88 4 -95 78 -14 141 -25 186
-65 265 -48 93 -83 137 -160 200 -115 94 -276 160 -479 197 -135 24 -237 25
-387 6 -162 -22 -362 -75 -385 -102 -6 -8 -17 -14 -24 -14 -17 0 -171 -95
-223 -137 -24 -20 -51 -51 -60 -69 -8 -19 -19 -34 -23 -34 -3 0 -40 33 -80 73
-124 122 -372 275 -519 321 -30 10 -64 21 -75 26 -40 16 -81 29 -115 35 -19 4
-61 16 -92 26 -32 10 -101 25 -155 33 -54 8 -129 21 -168 30 -66 14 -412 25
-570 18z m335 -73 c79 -9 106 -9 124 0 17 10 33 10 65 1 24 -6 84 -18 134 -26
178 -28 424 -104 556 -172 202 -104 348 -217 446 -347 54 -73 57 -74 98 -73
45 0 83 20 73 36 -9 15 63 140 99 170 41 33 230 147 271 162 63 24 179 50 293
66 114 17 127 17 217 1 112 -20 257 -74 329 -121 27 -19 77 -62 111 -97 48
-51 67 -80 92 -144 30 -78 62 -228 62 -290 0 -17 5 -36 12 -43 8 -8 8 -15 -2
-26 -17 -22 12 -33 46 -17 17 8 31 8 44 1 10 -5 57 -10 103 -10 83 0 295 -20
427 -41 134 -20 364 -114 491 -200 94 -63 188 -162 243 -258 47 -80 50 -89 55
-175 7 -102 -2 -233 -17 -262 -5 -10 -17 -35 -25 -55 -37 -86 -107 -138 -244
-178 -40 -12 -73 -24 -73 -26 0 -2 -2 -10 -6 -18 -4 -10 11 -18 53 -31 94 -26
174 -91 224 -181 28 -51 33 -70 33 -126 0 -58 -4 -74 -34 -124 -73 -121 -201
-236 -335 -302 -122 -60 -200 -86 -680 -228 -275 -81 -330 -92 -580 -120 -329
-37 -489 -44 -498 -22 -3 7 -33 21 -68 31 -60 16 -63 16 -81 -2 -18 -18 -18
-19 2 -64 17 -40 19 -53 10 -94 -19 -86 -75 -134 -192 -168 -106 -30 -602 -41
-903 -19 -262 19 -794 127 -905 183 -43 22 -80 64 -80 90 0 10 -7 23 -14 30
-9 7 -18 40 -22 81 -4 39 -13 77 -21 85 -19 19 -77 18 -93 -2 -23 -26 -98 -65
-173 -90 -40 -12 -91 -30 -114 -38 -45 -17 -201 -23 -288 -11 -86 11 -325 97
-366 132 -8 7 -20 13 -26 13 -16 0 -46 38 -38 49 3 6 2 11 -3 11 -14 0 -23 43
-12 54 17 17 -11 36 -55 36 -32 0 -54 -9 -96 -38 -157 -110 -372 -214 -465
-226 -16 -2 -40 -9 -54 -15 -58 -25 -188 -40 -388 -47 -201 -6 -213 -6 -210
11 2 10 -3 20 -9 22 -7 3 -13 -3 -13 -12 0 -14 -11 -15 -91 -10 -51 3 -128 14
-173 25 -45 11 -119 26 -166 35 -129 24 -130 24 -130 40 0 10 -9 12 -32 9 -28
-5 -56 8 -168 72 -151 86 -165 97 -266 195 -95 93 -129 161 -155 315 -18 109
-18 122 -4 170 21 73 53 107 143 150 42 20 84 40 92 44 31 15 19 35 -39 63
-63 29 -198 144 -236 200 -58 85 -76 129 -87 213 -15 107 -5 159 52 275 61
124 121 182 265 252 77 38 228 82 329 97 86 13 243 15 328 5 71 -8 86 2 68 46
-8 18 -14 62 -14 98 0 93 35 162 134 261 68 68 88 82 161 110 125 48 338 98
454 105 156 11 319 -17 445 -76 87 -40 154 -31 155 21 0 8 13 17 29 20 17 3
28 10 26 15 -2 6 -11 9 -21 7 -16 -3 -18 2 -13 30 25 138 128 207 519 349 227
83 517 143 707 148 32 0 103 -4 158 -10z m-3875 -1919 c3 -5 1 -10 -4 -10 -6
0 -11 5 -11 10 0 6 2 10 4 10 3 0 8 -4 11 -10z m60 -90 c7 -23 -2 -60 -16 -60
-5 0 -9 18 -9 40 0 42 14 54 25 20z m72 -97 c-3 -16 -9 -36 -12 -45 -11 -27
30 -23 49 4 24 34 38 11 24 -37 -7 -22 -13 -42 -15 -44 -2 -3 -26 17 -52 44
l-50 48 22 28 c26 37 41 37 34 2z m148 -89 l25 -16 -40 -20 c-23 -11 -42 -19
-44 -17 -2 2 -1 19 1 37 6 36 21 40 58 16z m7635 -749 c-15 -18 -119 -70 -126
-63 -5 6 114 77 130 78 5 0 3 -7 -4 -15z m-7596 -41 c15 -14 26 -27 23 -30 -3
-3 -20 8 -38 25 -38 37 -26 41 15 5z m7386 -38 c0 -7 -122 -78 -126 -73 -3 3
21 21 53 41 54 33 73 41 73 32z m-7310 -28 c0 -13 -23 -5 -28 10 -2 7 2 10 12
6 9 -3 16 -11 16 -16z m7360 -4 c0 -4 -16 -21 -35 -39 -60 -57 -536 -234 -785
-292 -167 -38 -380 -81 -440 -87 -54 -6 -55 -6 -30 12 13 9 36 28 50 41 l25
23 -39 -21 c-21 -12 -40 -20 -42 -19 -1 2 29 32 68 68 69 62 73 64 140 72 38
4 77 10 88 13 40 13 17 -12 -65 -68 -79 -54 -101 -77 -74 -77 18 0 80 40 124
79 73 67 82 72 164 91 45 11 85 20 89 20 9 -1 -41 -39 -50 -40 -11 0 -148 -89
-148 -95 0 -3 11 -5 24 -5 13 0 75 34 137 76 132 88 168 108 177 98 4 -4 2 -9
-5 -11 -23 -8 -117 -78 -121 -90 -10 -33 93 11 220 93 84 54 128 77 128 66 0
-4 -13 -16 -30 -25 -41 -24 -90 -67 -90 -78 0 -28 80 4 182 73 43 29 64 37 82
32 27 -6 107 26 169 68 33 22 87 36 87 22z m-7320 -22 c0 -8 26 -23 73 -43 15
-6 26 -16 24 -23 -7 -22 -33 -16 -70 19 -21 19 -42 35 -48 35 -5 0 -9 5 -9 10
0 6 7 10 15 10 8 0 15 -3 15 -8z m2180 3 c0 -4 -7 -19 -15 -35 -9 -17 -15 -33
-13 -37 1 -5 -36 -38 -81 -75 -123 -100 -154 -129 -147 -136 13 -12 81 33 134
88 28 30 52 49 52 43 0 -6 -7 -16 -15 -23 -8 -7 -15 -22 -15 -33 0 -20 0 -20
23 1 12 11 40 50 62 86 22 36 45 66 50 66 18 -1 57 -39 50 -50 -13 -20 -165
-131 -177 -128 -7 1 -42 -14 -78 -34 -36 -20 -105 -50 -155 -66 -122 -40 -275
-81 -275 -73 0 12 89 75 233 166 76 49 145 98 154 111 8 13 47 41 87 63 40 22
78 47 85 55 13 15 41 22 41 11z m-2242 -50 c-3 -3 -9 2 -12 12 -6 14 -5 15 5
6 7 -7 10 -15 7 -18z m7066 -13 c-21 -16 -61 -41 -89 -56 l-50 -28 34 28 c54
46 113 84 129 84 8 0 -3 -13 -24 -28z m-6870 -33 c-3 -6 0 -9 7 -8 19 4 59
-10 59 -20 0 -23 -27 -30 -51 -14 -45 32 -54 44 -39 53 17 10 33 3 24 -11z
m-119 -1 c14 -6 25 -15 25 -20 0 -13 -10 -10 -37 12 -29 23 -25 25 12 8z
m6805 -2 c0 -7 -141 -88 -146 -83 -2 2 15 17 38 32 67 45 108 64 108 51z
m-4490 -26 c8 -5 12 -10 10 -12 -3 -2 -37 -32 -77 -67 -55 -48 -77 -61 -93
-56 -34 11 -23 29 60 98 56 47 74 54 100 37z m-2086 -95 c27 -15 30 -14 63 11
34 26 35 26 116 13 45 -7 86 -15 90 -19 5 -4 -15 -26 -42 -50 -28 -23 -51 -46
-51 -51 0 -25 92 6 150 52 l25 19 -30 -10 c-16 -6 -45 -21 -64 -32 -44 -28
-37 -12 16 36 41 37 44 38 67 23 13 -9 33 -13 44 -11 44 12 27 -15 -36 -57
-63 -41 -66 -44 -38 -47 18 -2 58 11 113 37 82 40 163 55 177 33 3 -5 -24 -28
-60 -50 -65 -42 -77 -68 -26 -56 38 9 147 67 133 72 -6 2 -29 -7 -51 -19 -60
-34 -58 -18 3 18 52 31 53 31 157 24 l105 -6 -45 -27 c-53 -31 -130 -96 -130
-109 0 -13 53 -11 86 4 57 25 116 58 111 63 -2 3 -39 -11 -81 -30 -42 -19 -76
-31 -76 -26 0 5 37 35 81 68 l82 59 124 7 c68 4 131 10 140 13 42 16 -5 -20
-70 -54 -40 -21 -101 -60 -137 -87 l-65 -49 -170 7 c-93 4 -205 13 -247 20
-102 19 -275 77 -371 125 -101 51 -287 163 -287 173 0 7 102 -39 194 -87z m-9
75 c-3 -5 -11 -10 -16 -10 -6 0 -7 5 -4 10 3 6 11 10 16 10 6 0 7 -4 4 -10z
m1685 -4 c-8 -7 -69 -46 -135 -86 -66 -40 -149 -93 -184 -119 -35 -25 -71 -51
-80 -58 -9 -6 -45 -14 -81 -18 l-65 -6 60 29 c33 16 110 60 170 97 111 70 302
174 320 175 5 0 3 -6 -5 -14z m1370 10 c0 -13 -153 -110 -174 -111 -14 0 -24
0 -23 2 1 1 40 27 86 57 73 49 111 66 111 52z m-2989 -22 c11 -14 10 -19 -10
-34 -22 -16 -26 -16 -52 -1 -36 20 -36 24 -1 38 39 15 48 15 63 -3z m2089 12
c0 -4 -43 -51 -103 -113 -25 -26 -29 -35 -19 -45 14 -14 69 10 147 66 66 47
53 46 -35 -5 -39 -23 -73 -40 -75 -38 -2 2 21 30 52 63 l54 58 45 -17 c38 -14
59 -35 37 -35 -16 0 -134 -121 -128 -130 3 -6 3 -10 -2 -10 -21 0 -102 30
-132 48 l-32 20 38 19 c21 10 37 24 36 30 -4 17 78 92 100 93 9 0 17 -2 17 -4z
m919 -65 c-1 -12 -163 -120 -171 -115 -5 3 18 23 52 45 73 47 79 60 10 23 -28
-15 -52 -25 -55 -23 -2 3 28 28 68 56 64 45 73 49 85 35 6 -9 12 -18 11 -21z
m-169 24 c0 -2 -33 -25 -72 -51 -40 -25 -84 -56 -98 -68 -70 -63 -358 -96
-530 -62 -62 12 -64 13 -38 24 36 15 110 64 104 69 -2 3 -26 -8 -53 -23 l-48
-27 61 62 60 62 50 -12 c27 -7 53 -16 57 -20 5 -3 -13 -22 -40 -42 -27 -19
-57 -45 -67 -56 -19 -21 -19 -21 8 -21 18 0 30 7 37 23 6 12 31 37 57 56 38
29 53 34 91 32 54 -3 63 -9 36 -23 -59 -34 -118 -108 -86 -108 15 0 163 101
157 107 -3 3 -24 -7 -46 -22 -54 -37 -62 -26 -10 13 31 23 52 30 85 30 24 0
53 3 64 7 24 7 29 -10 6 -19 -52 -19 -128 -96 -96 -96 16 0 105 49 136 76 l30
25 -35 -16 -35 -16 30 25 c17 14 39 26 51 26 11 0 24 3 28 7 7 8 84 40 99 42
4 1 7 -1 7 -4z m-1400 -19 c0 -8 -301 -178 -307 -173 -3 4 9 14 26 24 18 10
69 40 114 67 128 76 167 96 167 82z m-125 -39 c-11 -8 -51 -30 -90 -51 -101
-55 -195 -119 -195 -133 0 -8 -13 -13 -32 -13 -18 0 -51 -3 -73 -6 -34 -5 -27
1 51 39 112 55 187 98 180 104 -3 3 -53 -20 -112 -51 -101 -53 -141 -68 -119
-47 6 5 61 39 123 75 83 48 128 67 165 72 29 4 61 10 72 15 34 13 52 11 30 -4z
m1727 -4 c23 -21 23 -40 -2 -48 -10 -3 -53 -28 -94 -55 -60 -39 -77 -46 -86
-35 -8 10 -1 17 32 34 24 11 57 32 73 47 l30 25 -53 -27 c-28 -15 -54 -25 -56
-23 -4 4 123 97 133 99 3 0 13 -7 23 -17z m2778 11 c0 -3 -12 -16 -27 -27 -16
-12 -60 -50 -100 -84 -60 -53 -78 -63 -109 -63 l-36 0 59 45 c81 62 132 108
107 96 -12 -6 -42 -26 -66 -45 -25 -18 -58 -42 -74 -52 -26 -17 -28 -17 -15
-1 8 10 41 41 74 70 61 52 63 53 175 66 6 0 12 -2 12 -5z m-5396 -13 c3 -4 -7
-14 -22 -21 -102 -48 -120 -48 -45 0 50 32 59 35 67 21z m5173 -26 c-26 -13
-84 -45 -128 -71 -44 -25 -83 -44 -86 -40 -4 4 14 28 40 54 26 26 47 53 47 59
0 12 42 18 130 21 l45 1 -48 -24z m-2792 5 c-3 -5 -12 -10 -18 -10 -7 0 -6 4
3 10 19 12 23 12 15 0z m2631 1 c-8 -12 -46 -21 -46 -11 0 9 18 18 38 19 7 1
11 -3 8 -8z m-2337 -47 c12 -14 21 -27 19 -28 -23 -19 -181 -97 -190 -94 -6 2
27 26 75 52 48 26 87 49 87 51 0 4 -93 -36 -152 -66 -22 -11 -42 -18 -45 -16
-5 6 162 124 178 126 3 1 16 -11 28 -25z m2316 6 c-19 -21 -35 -26 -35 -12 0
5 10 14 23 20 31 15 32 14 12 -8z m130 -35 c-60 -55 -88 -70 -121 -63 -11 2
15 23 72 60 49 31 94 57 99 57 6 0 -17 -24 -50 -54z m-2395 -14 c0 -9 -24 -21
-43 -21 -6 0 -2 7 9 15 22 17 34 19 34 6z m20 -70 c0 -5 -27 -26 -60 -46 -64
-39 -72 -50 -40 -58 26 -7 53 1 152 43 109 45 119 33 15 -18 -48 -22 -87 -46
-87 -51 0 -22 51 -22 117 -1 76 26 173 66 173 74 0 5 -79 -16 -139 -38 -65
-24 -73 -19 -16 11 80 42 117 45 223 21 50 -12 92 -24 92 -27 0 -4 -41 -22
-91 -41 -50 -20 -89 -40 -87 -45 6 -18 78 -9 106 14 61 49 164 86 185 65 4 -4
-38 -28 -92 -55 -108 -53 -134 -74 -110 -90 19 -13 85 -4 153 22 74 27 64 37
-15 15 -33 -10 -63 -15 -66 -13 -2 3 35 28 84 57 83 49 91 52 138 45 72 -9 96
-16 89 -26 -3 -5 -13 -9 -22 -9 -9 0 -64 -23 -122 -51 -79 -38 -101 -52 -90
-59 22 -14 61 -12 113 6 45 15 81 43 41 31 -106 -32 -90 -15 38 42 95 43 97
43 169 35 l72 -9 -114 -44 c-63 -24 -134 -54 -158 -67 -52 -29 -103 -30 -244
-9 -87 13 -131 23 -259 56 -36 9 -53 29 -25 29 6 0 53 20 102 45 50 25 79 42
65 39 -50 -13 -180 -66 -194 -80 -12 -12 -28 -8 -114 29 -112 49 -204 105
-196 119 4 6 11 5 17 -1 18 -18 58 -11 122 19 67 32 75 34 75 21z m78 -17 c-3
-15 -128 -69 -128 -55 0 9 102 70 118 71 8 0 12 -7 10 -16z m1657 -142 c-6 -5
-82 -32 -170 -60 -195 -63 -324 -91 -265 -57 34 19 23 18 -66 -6 -41 -11 -78
-19 -80 -16 -3 3 28 17 68 33 40 15 110 42 156 61 45 18 97 33 115 32 25 0 13
-7 -55 -31 -86 -29 -111 -48 -65 -48 13 0 27 4 33 9 19 17 162 65 229 77 89
15 111 16 100 6z m-635 -12 c0 -3 -39 -20 -88 -39 -118 -46 -152 -62 -152 -72
0 -18 118 -8 205 16 50 15 114 33 144 41 29 8 51 17 49 19 -2 3 -65 -11 -139
-29 -192 -48 -189 -47 -189 -37 0 5 17 15 38 22 20 6 71 27 114 45 73 33 82
34 199 34 67 0 120 -2 117 -5 -2 -3 -74 -30 -158 -60 -84 -30 -158 -59 -164
-65 -12 -12 -356 -14 -356 -2 0 5 18 14 39 21 57 16 114 41 109 47 -3 2 -34
-5 -69 -16 -62 -19 -98 -25 -87 -15 3 3 59 28 124 55 109 45 125 49 192 47 39
-1 72 -4 72 -7z"/>
<path d="M1400 2876 c0 -7 -9 -16 -20 -19 -20 -5 -20 -13 -20 -514 0 -279 4
-513 8 -519 4 -7 63 -32 132 -57 115 -42 342 -126 382 -142 12 -5 17 0 20 17
2 13 9 22 16 21 8 -2 12 13 12 46 l0 48 -182 67 c-101 36 -194 72 -208 79
l-25 13 -3 471 -2 470 -43 17 c-52 20 -67 20 -67 2z m24 -66 l26 -10 0 -277
c0 -153 -4 -284 -8 -290 -7 -10 -12 -10 -26 0 -16 12 -18 40 -23 300 -4 158
-3 287 0 287 3 0 17 -4 31 -10z"/>
<path d="M6796 2854 c-44 -8 -135 -33 -202 -55 -98 -33 -126 -46 -143 -70 -20
-27 -26 -73 -71 -582 -28 -303 -50 -556 -50 -561 0 -12 93 1 213 30 68 16 140
43 217 81 101 50 125 67 200 142 146 147 234 331 260 545 23 183 -2 312 -77
396 -70 78 -190 104 -347 74z m139 -163 c54 -24 99 -78 120 -142 14 -42 17
-75 12 -178 -13 -333 -169 -532 -472 -602 -53 -12 -98 -19 -102 -16 -9 10 73
887 85 899 6 6 46 21 89 34 99 29 211 31 268 5z"/>
<path d="M6162 2690 c-18 -4 -44 -20 -59 -36 -26 -28 -27 -37 -50 -284 -13
-140 -29 -336 -36 -435 l-12 -180 -38 91 c-35 83 -321 630 -357 683 -15 21
-16 21 -70 5 -102 -30 -93 7 -144 -576 -25 -282 -49 -539 -52 -570 -5 -52 -4
-58 13 -58 40 0 93 21 93 37 0 9 6 21 14 27 13 10 39 265 77 751 6 77 11 141
12 142 1 0 27 -53 57 -120 31 -67 122 -249 204 -405 116 -221 152 -282 165
-278 9 3 35 10 59 16 24 6 46 19 49 28 4 9 11 20 16 23 8 6 106 1023 107 1112
0 20 -3 37 -7 36 -5 -1 -23 -5 -41 -9z"/>
<path d="M2093 2620 c-3 -11 -12 -20 -19 -20 -12 0 -14 -84 -14 -520 l0 -520
33 -14 c68 -28 77 -29 77 -7 0 11 7 24 15 28 13 8 15 73 13 522 l-3 513 -48
19 c-48 19 -49 19 -54 -1z m38 -70 c5 0 9 -100 9 -239 0 -212 -2 -240 -16
-245 -9 -4 -20 -4 -23 0 -3 3 -8 116 -9 251 -4 227 -3 245 13 239 9 -3 21 -6
26 -6z"/>
<path d="M2443 2489 c-3 -10 -12 -19 -19 -19 -12 0 -14 -84 -14 -520 l0 -520
37 -15 c72 -30 83 -30 83 0 0 15 4 24 10 20 7 -4 10 59 10 181 l0 186 37 34
c20 19 39 31 42 29 2 -3 78 -148 167 -323 l162 -317 61 -22 c61 -22 70 -19 50
18 -9 18 -8 19 17 13 25 -6 19 7 -101 242 -70 137 -152 295 -181 351 -30 56
-54 108 -54 115 0 8 68 74 152 147 128 113 189 177 176 186 -2 1 -31 12 -66
25 l-62 22 -137 -128 c-76 -71 -162 -153 -191 -183 -33 -34 -56 -51 -62 -45
-5 5 -11 118 -12 258 l-3 248 -49 18 c-47 19 -48 19 -53 -1z m49 -78 c4 -3 5
-52 1 -108 -5 -85 -9 -102 -24 -106 -24 -6 -29 17 -29 136 0 97 0 98 23 92 12
-4 25 -10 29 -14z m469 -1054 c34 -60 58 -111 55 -114 -16 -16 -42 18 -85 109
-27 57 -51 114 -55 128 -7 24 -7 24 9 5 9 -11 43 -69 76 -128z"/>
<path d="M5157 2440 c-16 -5 -39 -20 -53 -35 -22 -24 -25 -41 -44 -243 -60
-664 -81 -914 -76 -919 3 -3 28 0 55 7 72 17 86 51 101 240 6 80 27 318 46
530 18 212 34 395 34 407 0 25 -14 28 -63 13z"/>
<path d="M4737 2335 c-60 -17 -87 -44 -116 -120 -118 -310 -227 -607 -271
-735 -54 -157 -70 -192 -70 -152 0 52 -170 826 -185 840 -2 2 -35 -3 -73 -13
-107 -26 -102 -14 -161 -411 -27 -187 -60 -410 -72 -498 -13 -87 -27 -160 -33
-162 -6 -2 -99 29 -206 69 l-195 73 -3 172 c-1 95 1 172 6 172 4 0 81 -27 170
-60 88 -33 166 -60 171 -60 6 0 11 9 11 20 0 11 7 20 15 20 11 0 15 12 15 44
l0 43 -182 68 c-101 38 -189 73 -195 78 -15 11 -19 297 -4 297 5 0 86 -29 181
-65 95 -36 176 -65 181 -65 5 0 9 9 9 20 0 11 7 20 16 20 12 0 14 10 12 46
l-3 47 -145 54 c-341 128 -361 135 -367 113 -3 -11 -12 -20 -19 -20 -12 0 -14
-84 -14 -519 0 -485 1 -519 18 -526 66 -26 354 -133 434 -161 88 -31 102 -33
141 -24 69 18 72 27 133 461 29 213 57 420 61 461 8 85 10 80 43 -97 43 -233
154 -715 164 -715 46 0 83 22 104 62 22 43 213 549 323 858 l59 165 -5 -120
c-3 -66 -7 -165 -10 -220 -3 -55 -7 -163 -10 -240 -3 -77 -8 -197 -11 -267 -4
-118 -3 -128 13 -128 33 0 93 21 93 32 0 6 6 19 14 27 11 13 17 115 30 486 9
259 18 509 21 558 7 100 8 98 -88 72z m-1447 -932 c5 -196 7 -214 25 -232 40
-37 401 -167 440 -157 29 7 28 5 60 196 29 179 32 190 49 190 13 0 0 -170 -27
-345 -12 -77 -13 -80 -44 -88 -27 -8 -50 -3 -150 36 -65 26 -181 69 -258 96
l-140 49 -3 163 c-4 217 4 311 26 307 15 -3 18 -28 22 -215z m906 -81 c7 -4
17 -26 23 -48 9 -32 17 -43 37 -48 14 -4 29 -4 34 -1 14 8 12 -1 -8 -69 -13
-43 -24 -61 -40 -67 -27 -10 -26 -12 -47 106 -9 50 -18 100 -21 113 -5 23 2
27 22 14z"/>
</g>
</svg>
