<?xml version="1.0" standalone="no"?>
<!DOCTYPE svg PUBLIC "-//W3C//DTD SVG 20010904//EN"
 "http://www.w3.org/TR/2001/REC-SVG-20010904/DTD/svg10.dtd">
<svg version="1.0" xmlns="http://www.w3.org/2000/svg"
 width="175.000000pt" height="151.000000pt" viewBox="0 0 175.000000 151.000000"
 preserveAspectRatio="xMidYMid meet">

<g transform="translate(0.000000,151.000000) scale(0.100000,-0.100000)"
fill="#000000" stroke="none">
<path d="M636 1494 c-81 -29 -162 -114 -201 -211 -23 -55 -25 -57 -75 -70 -84
-21 -152 -83 -195 -176 -13 -26 -43 -68 -68 -92 -117 -112 -128 -255 -29 -354
50 -49 101 -71 168 -71 39 0 39 -1 71 -70 l31 -70 -23 0 c-47 0 -115 -79 -115
-135 0 -20 -5 -25 -25 -25 -29 0 -72 -41 -81 -77 -4 -13 -12 -23 -20 -23 -7 0
-25 -16 -40 -35 -25 -33 -26 -36 -10 -60 22 -34 51 -31 78 8 18 25 29 31 51
29 21 -3 35 5 57 28 17 18 30 41 30 52 0 14 5 18 16 14 42 -16 64 -16 93 -2
38 20 81 82 81 118 0 16 1 28 3 28 1 0 26 -9 55 -20 72 -28 161 -26 234 4 l57
23 65 -33 c149 -75 326 -50 448 64 57 53 102 122 128 193 18 54 19 54 67 60
101 13 178 70 229 170 92 182 -31 389 -232 389 -60 0 -63 1 -84 34 -27 45 -84
94 -134 117 -45 20 -157 26 -200 10 -23 -9 -27 -6 -55 43 -57 101 -151 156
-266 155 -38 0 -88 -7 -109 -15z m210 -69 c59 -29 91 -61 132 -130 16 -27 35
-49 43 -48 8 1 38 6 67 12 105 21 204 -24 267 -121 l30 -47 69 0 c85 -1 141
-25 189 -82 63 -72 74 -170 31 -257 -44 -89 -116 -132 -222 -132 -51 0 -62 -9
-62 -50 0 -11 -9 -44 -21 -75 -29 -78 -111 -164 -191 -201 -56 -26 -74 -29
-159 -29 -91 0 -100 2 -167 36 l-71 37 -63 -25 c-83 -34 -192 -30 -260 10 -64
37 -113 96 -138 166 l-23 61 -61 0 c-72 0 -123 25 -170 83 -25 31 -31 49 -34
100 -4 82 24 140 89 182 37 24 48 37 53 65 8 53 59 122 108 150 24 14 66 27
97 30 l55 5 10 55 c18 89 76 165 161 208 61 32 175 30 241 -3z m-483 -1127
c26 -31 22 -82 -9 -107 -15 -12 -38 -21 -51 -21 -33 0 -73 42 -73 77 1 72 87
105 133 51z m-174 -152 c9 -11 10 -20 1 -36 -21 -39 -83 -7 -67 34 8 20 50 21
66 2z m-114 -95 c7 -12 -12 -24 -25 -16 -11 7 -4 25 10 25 5 0 11 -4 15 -9z"/>
<path d="M649 951 c-50 -16 -71 -33 -90 -74 -26 -59 -24 -91 10 -129 27 -30
34 -33 90 -33 33 1 63 4 67 7 3 4 12 34 19 67 l13 61 -43 0 c-30 0 -45 -5 -49
-16 -9 -23 -8 -24 14 -24 23 0 23 0 10 -34 -11 -30 -35 -33 -68 -10 -24 17
-30 70 -11 106 15 27 71 49 108 42 24 -5 32 -2 37 11 12 31 -43 45 -107 26z"/>
<path d="M874 946 c-95 -43 -111 -190 -25 -226 86 -35 171 34 171 139 0 76
-74 120 -146 87z m78 -43 c50 -45 -10 -168 -72 -148 -64 20 -30 165 39 165 8
0 23 -7 33 -17z"/>
</g>
</svg>
