<?xml version="1.0" standalone="no"?>
<!DOCTYPE svg PUBLIC "-//W3C//DTD SVG 20010904//EN"
 "http://www.w3.org/TR/2001/REC-SVG-20010904/DTD/svg10.dtd">
<svg version="1.0" xmlns="http://www.w3.org/2000/svg"
 width="1203.000000pt" height="417.000000pt" viewBox="0 0 1203.000000 417.000000"
 preserveAspectRatio="xMidYMid meet">

<g transform="translate(0.000000,417.000000) scale(0.100000,-0.100000)"
fill="#000000" stroke="none">
<path d="M210 2938 c0 -568 4 -1038 8 -1043 7 -10 36 -22 332 -130 85 -31 189
-69 230 -85 41 -16 120 -45 175 -65 121 -44 194 -71 259 -96 78 -31 77 -32 74
77 l-3 96 -35 13 c-197 74 -544 201 -677 250 -56 20 -108 44 -117 54 -14 16
-16 117 -18 950 l-3 933 -40 15 c-22 8 -68 26 -103 39 -34 13 -67 24 -72 24
-7 0 -10 -358 -10 -1032z"/>
<path d="M11195 3904 c-226 -31 -575 -126 -756 -206 l-55 -25 -13 -144 c-6
-79 -16 -187 -21 -239 -5 -52 -14 -151 -20 -220 -6 -69 -15 -170 -20 -225 -5
-55 -14 -152 -20 -215 -5 -63 -14 -164 -20 -225 -5 -60 -21 -238 -35 -395 -35
-398 -45 -519 -49 -562 -4 -36 -3 -38 26 -38 16 0 48 4 71 9 23 5 92 19 152
31 642 124 1032 379 1283 840 151 279 242 709 212 1004 -24 223 -77 353 -190
465 -99 98 -212 139 -400 145 -63 3 -128 3 -145 0z m79 -239 c189 -30 299
-122 361 -300 25 -71 45 -197 45 -285 0 -66 -22 -270 -34 -325 -30 -129 -42
-171 -68 -244 -67 -191 -207 -404 -335 -507 -26 -21 -50 -41 -53 -45 -13 -16
-171 -113 -229 -140 -131 -61 -319 -113 -473 -133 l-38 -5 0 51 c0 29 4 90 10
137 5 47 14 140 20 206 5 66 14 172 20 235 6 63 21 246 35 405 14 160 29 333
34 385 6 52 15 156 21 230 17 203 15 197 58 219 40 20 203 74 279 92 43 10
204 35 243 38 8 0 55 -6 104 -14z"/>
<path d="M9781 3554 c-52 -13 -96 -26 -98 -28 -4 -3 -27 -246 -54 -556 -6 -69
-14 -168 -19 -220 -39 -432 -58 -689 -65 -910 -3 -102 -8 -195 -11 -207 -9
-43 -32 -24 -60 50 -64 169 -216 495 -301 647 -11 19 -41 76 -68 125 -26 50
-62 117 -80 150 -18 33 -52 96 -75 140 -23 44 -53 98 -65 120 -12 22 -38 69
-57 105 -103 191 -133 248 -146 273 -7 15 -20 27 -27 27 -17 0 -247 -59 -253
-65 -5 -4 -16 -127 -56 -585 -15 -162 -31 -342 -36 -400 -5 -58 -14 -158 -20
-222 -17 -197 -30 -348 -40 -453 -9 -99 -19 -201 -44 -485 -7 -80 -12 -147
-10 -149 3 -4 190 40 203 49 5 3 17 86 26 185 46 511 70 785 95 1085 9 114 24
346 36 552 8 154 30 164 78 37 68 -179 191 -434 393 -814 47 -88 108 -203 136
-255 27 -52 70 -132 94 -177 24 -45 72 -135 106 -200 34 -65 67 -126 73 -136
10 -17 15 -17 117 8 58 14 112 28 120 31 14 5 22 62 47 349 6 66 15 165 20
220 6 55 26 280 45 500 19 220 39 452 45 515 6 63 15 167 21 230 6 63 14 158
19 210 18 184 23 280 14 279 -5 0 -51 -12 -103 -25z"/>
<path d="M1610 2412 l0 -1039 98 -36 c55 -21 104 -37 110 -37 9 0 12 263 12
1039 l0 1039 -27 10 c-16 5 -58 22 -96 36 -37 14 -74 26 -82 26 -13 0 -15
-125 -15 -1038z"/>
<path d="M2312 2153 l3 -1038 82 -33 c44 -17 95 -35 112 -38 l31 -6 0 390 0
391 101 87 c85 74 102 85 113 73 7 -8 93 -171 191 -364 98 -192 195 -381 215
-420 20 -38 83 -160 138 -271 56 -111 107 -206 114 -211 14 -11 233 -93 249
-93 9 0 -76 170 -261 525 -32 61 -95 182 -140 270 -45 88 -120 232 -165 320
-152 293 -175 339 -175 351 0 12 120 121 505 458 99 86 180 162 180 168 0 12
-226 100 -262 102 -23 1 -460 -399 -665 -608 -74 -76 -111 -107 -122 -103 -14
6 -16 59 -16 510 l0 503 -102 37 c-57 20 -109 37 -116 37 -10 0 -12 -211 -10
-1037z"/>
<path d="M7787 3061 c-89 -21 -108 -28 -112 -45 -3 -12 -23 -226 -45 -476 -37
-427 -46 -528 -70 -790 -24 -259 -32 -355 -60 -667 -17 -183 -30 -335 -30
-338 0 -3 9 -5 20 -5 27 0 193 41 203 50 4 3 21 155 37 336 52 589 62 701 80
889 39 417 90 1023 88 1045 l-3 26 -108 -25z"/>
<path d="M6945 2853 c-77 -20 -141 -37 -143 -38 -2 -2 -99 -253 -142 -370 -10
-27 -53 -140 -95 -250 -42 -110 -85 -222 -95 -250 -10 -27 -48 -129 -85 -225
-100 -263 -236 -653 -296 -847 -45 -149 -63 -138 -95 59 -45 266 -88 475 -169
813 -37 156 -44 183 -95 400 -81 347 -88 370 -102 373 -14 3 -289 -65 -297
-74 -3 -2 -8 -30 -12 -62 -6 -48 -55 -383 -89 -612 -6 -36 -15 -96 -20 -135
-5 -38 -14 -97 -19 -130 -5 -33 -19 -125 -31 -205 -23 -161 -74 -509 -90 -610
-5 -36 -15 -101 -21 -145 -30 -198 -33 -210 -55 -213 -12 -2 -57 10 -100 27
-44 16 -142 53 -219 81 -77 28 -183 67 -235 87 -52 19 -133 49 -180 66 -47 16
-93 39 -102 50 -16 18 -18 51 -18 382 0 311 2 366 15 379 14 13 24 12 98 -15
45 -17 111 -41 147 -54 36 -13 115 -42 175 -65 159 -60 327 -120 337 -120 4 0
8 42 8 94 0 93 0 94 -27 104 -16 5 -64 24 -108 40 -44 17 -125 47 -180 67 -55
20 -122 44 -150 55 -27 10 -102 38 -165 61 -63 23 -123 49 -133 57 -16 14 -17
40 -15 340 3 375 -1 360 89 324 30 -11 124 -46 209 -77 85 -31 189 -69 230
-85 151 -58 269 -100 280 -100 6 0 10 36 10 95 0 90 -1 96 -22 105 -13 5 -86
32 -163 60 -77 29 -182 67 -232 86 -51 19 -137 50 -190 69 -54 20 -120 44
-148 55 -144 54 -271 100 -278 100 -4 0 -6 -469 -5 -1042 l3 -1041 105 -39
c58 -21 123 -45 145 -52 22 -8 132 -49 245 -91 260 -96 286 -106 395 -144 50
-18 114 -41 143 -53 l54 -21 93 23 c85 21 95 26 100 49 3 14 23 154 45 311 37
270 49 355 70 495 23 153 33 225 60 431 16 122 34 259 39 305 6 46 15 122 21
169 6 47 14 123 19 170 5 47 15 99 21 115 11 28 12 29 25 12 7 -10 16 -42 20
-70 15 -125 93 -549 125 -682 20 -84 143 -634 158 -710 21 -101 83 -369 88
-376 2 -4 43 3 91 15 l86 22 49 129 c26 72 55 148 63 170 7 22 44 119 81 215
36 96 79 209 94 250 15 41 76 203 135 360 58 157 115 308 125 335 53 143 95
259 159 447 73 215 86 248 100 248 18 0 19 -46 6 -223 -14 -183 -34 -602 -55
-1142 -7 -159 -15 -362 -19 -450 -4 -88 -6 -162 -5 -164 4 -4 199 40 213 48 5
3 14 143 20 311 6 168 16 422 21 565 5 143 14 402 20 575 6 173 15 412 20 531
13 279 13 289 -2 288 -7 0 -76 -17 -153 -36z"/>
</g>
</svg>
